<svg xmlns="http://www.w3.org/2000/svg" width="1134" height="393" viewBox="0 0 1134 393" version="1.1">
	<path d="M 818 14.800 C 818 22.390, 817.585 29.027, 817.077 29.550 C 816.569 30.072, 815.831 41.839, 815.436 55.697 C 814.903 74.419, 814.397 81.018, 813.466 81.375 C 812.550 81.726, 812.015 87.527, 811.479 102.928 C 810.893 119.766, 810.469 124, 809.373 124 C 808.235 124, 808 130.065, 808 159.430 L 808 194.861 805.750 195.180 L 803.500 195.500 803.235 225.137 C 802.981 253.659, 802.896 254.794, 801.002 255.289 C 799.118 255.782, 799.023 256.901, 798.767 281.652 L 798.500 307.500 796.250 307.820 L 794 308.139 794 333.570 L 794 359 790.500 359 C 787.278 359, 787 359.238, 787 362 C 787 364.833, 786.778 365, 783 365 L 779 365 779 369.500 L 779 374 752 374 C 737.150 374, 725 373.714, 725 373.365 C 725 373.015, 726.125 371.687, 727.500 370.412 C 729.740 368.336, 730 367.313, 730 360.567 C 730 353.531, 730.152 353, 732.314 352.457 C 733.587 352.138, 735.275 352.017, 736.064 352.188 C 737.012 352.394, 737.500 351.650, 737.500 350 C 737.500 347.810, 737.067 347.500, 734 347.500 C 730.677 347.500, 730.484 347.310, 730.190 343.750 C 729.931 340.624, 730.195 340, 731.779 340 C 732.881 340, 734.205 338.845, 734.932 337.250 C 736.574 333.646, 736.474 333.472, 732.975 333.839 C 730.907 334.056, 730 333.711, 730 332.710 C 730 331.918, 729.049 330.060, 727.886 328.582 C 726.723 327.104, 726.036 325.631, 726.358 325.308 C 727.513 324.154, 738.276 331.591, 742.193 336.250 C 746.165 340.975, 749 342.339, 749 339.525 C 749 337.179, 737.626 326.194, 732.850 323.928 C 729.490 322.334, 729.175 322.010, 731.468 322.506 C 736.317 323.554, 744.665 327.877, 750.031 332.118 C 754.806 335.893, 757 336.374, 757 333.646 C 757 332.235, 749.211 326.125, 744 323.448 C 742.075 322.459, 737.350 320.607, 733.500 319.332 L 726.500 317.015 733.500 317.576 C 743.263 318.359, 747.388 319.564, 755.907 324.123 C 760.618 326.644, 763.662 327.738, 764.270 327.130 C 765.645 325.755, 764.486 324.369, 759.531 321.465 C 752.408 317.291, 744.043 314.774, 735 314.082 L 726.500 313.433 733.874 312.034 C 742.715 310.357, 751.575 311.511, 760.638 315.519 C 766.243 317.997, 769.838 318.165, 768.428 315.883 C 767.135 313.792, 755.258 309.080, 748.599 308.016 C 742.374 307.021, 730.710 307.952, 727.579 309.693 C 726.857 310.095, 726.831 309.955, 727.500 309.270 C 728.050 308.708, 731.578 307.242, 735.340 306.012 C 742.510 303.669, 754.336 302.881, 761.134 304.292 C 763.982 304.884, 764.897 304.711, 765.365 303.492 C 766.383 300.839, 761.343 299.798, 749.500 300.214 C 740.452 300.532, 737.346 301.074, 732 303.267 C 726.382 305.572, 725.839 305.657, 728 303.896 C 732.069 300.579, 740.361 297.029, 747.557 295.524 C 754.942 293.979, 757.447 292.493, 754.545 291.379 C 751.619 290.256, 741.234 292.692, 734.131 296.167 C 730.484 297.951, 727.050 299.605, 726.500 299.842 C 723.734 301.037, 731.298 294.286, 736.750 290.694 C 743.015 286.566, 744.674 284, 741.077 284 C 739.140 284, 730.564 289.881, 728.260 292.789 C 727.579 293.650, 726.781 294.114, 726.488 293.821 C 726.195 293.529, 727.582 290.925, 729.569 288.036 C 732.304 284.060, 732.900 282.505, 732.020 281.641 C 731.146 280.783, 730.402 281.058, 729.019 282.750 C 726.746 285.530, 725.392 285.609, 724.710 283 C 724.423 281.900, 723.470 281, 722.594 281 C 721.667 281, 721 281.837, 721 283 C 721 285.599, 719.205 285.541, 716.341 282.850 C 714.350 280.980, 713.973 280.908, 713.440 282.297 C 713.063 283.279, 714.210 285.705, 716.423 288.603 C 718.401 291.194, 719.810 293.523, 719.553 293.780 C 719.297 294.037, 717.101 292.498, 714.674 290.362 C 709.143 285.494, 705.583 283.562, 703.567 284.336 C 701.002 285.320, 701.720 286.365, 707.250 289.688 C 710.138 291.423, 714.075 294.479, 716 296.478 L 719.500 300.112 713.500 297.062 C 706.921 293.718, 696.210 290.688, 692.720 291.184 C 688.518 291.782, 690.199 294.432, 695.237 295.153 C 702.266 296.158, 709.897 298.853, 715.250 302.220 C 717.862 303.864, 720 305.334, 720 305.488 C 720 305.642, 717.188 304.616, 713.750 303.209 C 702.807 298.729, 677.177 298.893, 680.933 303.419 C 681.739 304.390, 683.379 304.477, 687.747 303.780 C 691.416 303.195, 696.037 303.234, 700.502 303.888 C 707.479 304.910, 718.368 307.965, 717.638 308.695 C 717.427 308.906, 714.307 308.608, 710.704 308.033 C 702.920 306.789, 694.093 307.830, 685.749 310.976 C 679.177 313.454, 676.337 315.737, 677.892 317.292 C 678.586 317.986, 680.819 317.457, 684.872 315.638 C 692.715 312.118, 701.056 310.644, 708.734 311.421 C 718.456 312.405, 720.899 313.860, 712.960 313.937 C 702.357 314.039, 689.965 318.128, 682.990 323.824 C 681.071 325.392, 680.770 326.133, 681.679 327.058 C 682.594 327.989, 684.049 327.526, 688.162 324.995 C 695.269 320.622, 702.444 318.270, 711.223 317.433 C 718.993 316.693, 719.879 317.566, 712.940 319.125 C 704.551 321.010, 688 330.918, 688 334.055 C 688 336.683, 691.308 335.772, 696.182 331.802 C 701.481 327.486, 708.733 323.794, 714.500 322.476 C 716.611 321.994, 715.955 322.583, 712.284 324.468 C 706.938 327.212, 697 337.038, 697 339.581 C 697 342.382, 699.698 340.908, 704.275 335.607 C 707.022 332.425, 711.068 329.148, 714.142 327.616 C 719.285 325.053, 721.894 324.851, 718.722 327.260 C 717.824 327.942, 716.631 329.738, 716.070 331.250 C 715.265 333.419, 714.410 334, 712.025 334 C 708.260 334, 708.244 334.726, 711.920 338.751 C 714.787 341.890, 714.846 342.186, 715.170 354.911 C 715.495 367.697, 715.540 367.917, 718.437 370.937 L 721.374 374 686.562 374 L 651.750 374 652.313 371.183 C 655.781 353.843, 655.674 323.897, 652.082 306.500 C 649.475 293.875, 644.922 279.902, 639.892 269.090 C 636.320 261.412, 636.105 260.488, 637.422 258.478 C 638.215 257.268, 640.245 256.001, 641.932 255.664 C 643.747 255.301, 645 254.427, 645 253.525 C 645 252.301, 643.567 251.994, 637.750 251.969 L 630.500 251.939 624.500 242.862 C 621.200 237.870, 614.337 229.501, 609.250 224.263 L 600 214.740 600 204.452 C 600 194.058, 599.521 191, 597.893 191 C 597.387 191, 597 205.716, 597 225 L 597 259 593.082 259 C 588.216 259, 586 259.808, 586 261.581 C 586 263.323, 591.120 266, 594.450 266 L 597 266 597 320 L 597 374 592.642 374 L 588.285 374 587.642 367.853 C 586.551 357.413, 586.904 348.709, 588.545 345.561 C 589.922 342.920, 589.922 342.536, 588.539 341.762 C 587.477 341.168, 587 339.366, 587 335.950 L 587 331 575.069 331 L 563.137 331 563.095 322.001 C 563.065 315.775, 562.558 312.047, 561.451 309.905 L 559.850 306.809 557.867 310.509 C 556.777 312.544, 556.023 315.399, 556.192 316.854 L 556.500 319.500 543.250 319.779 L 530 320.058 530 316.850 C 530 313.553, 528.033 307, 527.043 307 C 525.173 307, 523.584 314.292, 523.729 322.219 L 523.887 330.938 512.194 331.219 L 500.500 331.500 500.203 336 C 500.023 338.723, 499.255 340.995, 498.257 341.754 C 496.977 342.727, 496.875 343.275, 497.804 344.204 C 498.621 345.021, 499 349.936, 499 359.700 L 499 374 494.611 374 C 490.368 374, 490.200 373.882, 489.550 370.415 C 489.180 368.444, 488.945 361.356, 489.028 354.665 C 489.111 347.974, 488.855 336.200, 488.459 328.500 C 487.765 315.013, 487.817 314.430, 489.869 312.595 C 492.512 310.232, 492.623 308, 490.098 308 C 488.518 308, 488.079 306.986, 487.500 302 C 486.827 296.205, 486.704 296, 483.902 296 C 481.022 296, 481 295.955, 481 290 L 481 284 475 284 C 471.667 284, 469 283.556, 469 283 C 469 282.450, 468.307 282, 467.460 282 C 466.613 282, 464.156 281.100, 462 280 C 457.043 277.471, 453.378 277.472, 449.226 280.004 C 447.425 281.102, 445.273 282, 444.444 282 C 443.615 282, 442.678 282.675, 442.362 283.500 C 441.948 284.577, 440.264 285, 436.393 285 C 431.383 285, 431 285.169, 431 287.375 C 431 293.081, 429.806 296, 427.473 296 C 425.434 296, 425.124 296.627, 424.500 302 C 424.035 306.009, 423.358 308, 422.461 308 C 419.985 308, 419.771 310.127, 422.007 312.507 C 423.923 314.547, 424.137 315.568, 423.591 320.053 C 423.244 322.906, 422.961 332.499, 422.962 341.370 C 422.964 350.242, 422.687 361.213, 422.345 365.750 L 421.725 374 418.362 374 L 415 374 415 369 C 415 366.250, 414.615 364, 414.143 364 C 412.838 364, 411.719 346.043, 412.933 344.581 C 413.524 343.869, 413.582 342.963, 413.071 342.426 C 411.789 341.079, 411.268 325.078, 412.493 324.665 C 413.095 324.462, 412.953 323.662, 412.139 322.676 C 411.117 321.439, 410.872 318.281, 411.155 310.014 C 411.362 303.956, 411.219 299, 410.836 299 C 410.453 299, 410.510 297.710, 410.962 296.133 C 411.620 293.840, 411.209 292.291, 408.909 288.383 C 406.281 283.920, 406.033 283.737, 406.017 286.250 C 406.008 287.762, 405.580 289, 405.067 289 C 403.238 289, 402.680 293.694, 402.887 307.339 C 403.025 316.482, 402.712 321.642, 401.962 322.545 C 401.338 323.297, 401.159 324.448, 401.563 325.102 C 402.679 326.907, 402.012 341.281, 400.742 342.811 C 399.951 343.764, 399.940 344.347, 400.706 344.826 C 401.416 345.270, 401.602 348.680, 401.251 354.799 L 400.717 364.098 396.108 363.799 L 391.500 363.500 391.299 356 C 390.681 333.015, 389.920 316.679, 389.429 315.885 C 389.122 315.388, 389.143 314.126, 389.475 313.080 C 389.813 312.012, 389.275 309.856, 388.248 308.168 L 386.418 305.158 385.006 308.329 C 384.022 310.541, 383.672 314.604, 383.850 321.761 C 383.990 327.404, 383.804 332.508, 383.436 333.103 C 383.069 333.698, 382.813 339.656, 382.869 346.342 C 383.011 363.262, 382.802 364, 377.873 364 L 373.905 364 374.003 340.750 C 374.110 315.167, 374.025 313.407, 373 320 C 372.362 324.104, 372.287 323.857, 372.150 317.191 C 372.056 312.608, 371.627 310.112, 371 310.500 C 370.450 310.840, 370 312.891, 370 315.059 C 370 319.147, 368.060 320.724, 367.921 316.750 C 367.827 314.057, 367.386 315.171, 366.537 320.250 C 365.614 325.768, 363 325.300, 363 319.617 C 363 316.074, 362.616 315.133, 361 314.710 C 359.882 314.418, 359 313.346, 359 312.281 C 359 311.232, 357.650 309.081, 356 307.500 C 354.350 305.919, 353 304.035, 353 303.313 C 353 301.637, 351.011 301.576, 350.969 303.250 C 350.951 303.938, 349.788 305.338, 348.383 306.361 L 345.828 308.223 346.530 302.608 C 347.588 294.136, 344.416 288.411, 333.522 279.135 C 325.798 272.558, 324.989 271.532, 324.882 268.189 C 324.816 266.160, 324.836 263.938, 324.925 263.250 C 325.015 262.563, 324.618 262, 324.044 262 C 323.470 262, 322.936 263.012, 322.858 264.250 C 322.677 267.139, 322.389 270.209, 322.171 271.573 C 322.077 272.164, 318.221 275.865, 313.602 279.798 C 308.149 284.440, 304.466 288.472, 303.102 291.290 C 300.841 295.959, 300.387 302.258, 302.004 306.511 L 303.008 309.152 300.254 307.015 C 298.739 305.840, 296.958 303.669, 296.295 302.189 L 295.090 299.500 295.054 302 C 295.032 303.524, 293.849 305.476, 292.022 307 C 290.375 308.375, 288.864 310.625, 288.664 312 C 288.464 313.375, 287.671 314.500, 286.900 314.500 C 285.939 314.500, 285.404 315.990, 285.195 319.250 C 284.993 322.396, 284.439 324, 283.553 324 C 282.764 324, 281.811 322.055, 281.226 319.250 C 280.682 316.637, 280.183 315.550, 280.118 316.833 C 279.917 320.801, 277.542 318.652, 276.900 313.922 L 276.300 309.500 276.032 315 C 275.800 319.745, 275.659 320.088, 275 317.500 C 274.580 315.850, 274.183 325.637, 274.118 339.250 L 274 364 270.098 364 L 266.196 364 265.632 358.250 C 265.322 355.087, 265.091 348.355, 265.118 343.290 C 265.145 338.224, 264.887 333.626, 264.545 333.073 C 264.203 332.519, 264.029 327.191, 264.158 321.233 C 264.343 312.746, 264.056 309.917, 262.832 308.170 L 261.269 305.940 259.793 308.220 C 258.780 309.784, 258.239 313.798, 258.069 321 C 257.933 326.775, 257.631 335.325, 257.399 340 C 257.167 344.675, 257.013 351.988, 257.057 356.250 L 257.136 364 252.172 364 L 247.208 364 246.620 356.250 C 246.297 351.988, 246.079 342.807, 246.136 335.848 C 246.192 328.889, 245.942 322.715, 245.578 322.127 C 245.215 321.539, 245.014 314.493, 245.131 306.470 C 245.312 294.077, 245.092 291.589, 243.672 289.930 C 242.752 288.856, 242 287.307, 242 286.489 C 242 285.670, 241.662 285.012, 241.250 285.027 C 240.132 285.068, 236.004 293.670, 236.746 294.412 C 237.704 295.371, 238.098 299, 237.244 298.999 C 236.835 298.999, 236.456 303.387, 236.403 308.749 C 236.350 314.112, 236.251 323.613, 236.183 329.862 C 236.110 336.569, 235.603 341.774, 234.944 342.568 C 234.330 343.307, 234.182 344.485, 234.615 345.186 C 235.682 346.913, 235.063 363.415, 233.915 363.833 C 233.412 364.017, 233 366.379, 233 369.083 L 233 374 229 374 L 225 374 225 337.500 C 225 313.833, 225.352 301, 226 301 C 226.550 301, 227 299.200, 227 297 C 227 293.400, 226.750 293, 224.500 293 L 222 293 222 278.500 C 222 269.500, 222.379 264, 223 264 C 223.550 264, 224 262.477, 224 260.617 C 224 258.074, 223.503 257.103, 222 256.710 C 220.172 256.232, 220 255.346, 220 246.415 C 220 241.040, 220.535 235.164, 221.188 233.357 C 222.220 230.501, 222.125 229.796, 220.459 227.955 C 218.937 226.273, 218.435 223.798, 218.021 215.936 C 217.557 207.118, 217.254 205.863, 215.250 204.461 C 213.679 203.362, 212.952 201.772, 212.840 199.193 L 212.680 195.500 212.268 199 C 212.042 200.925, 210.803 203.625, 209.515 205 C 207.455 207.200, 207.134 208.666, 206.837 217.208 C 206.550 225.464, 206.207 227.131, 204.540 228.349 C 202.837 229.593, 202.738 230.130, 203.790 232.438 C 204.501 234, 205 239.606, 205 246.047 C 205 255.054, 204.737 257, 203.519 257 C 201.628 257, 200.375 261.775, 201.873 263.273 C 202.604 264.004, 203 269.427, 203 278.700 C 203 292.562, 202.936 293, 200.899 293 C 198.961 293, 198.853 293.368, 199.502 297.750 C 199.888 300.363, 200.400 318.587, 200.638 338.250 L 201.072 374 198.286 373.991 C 196.754 373.987, 193.148 373.700, 190.274 373.355 L 185.048 372.727 184.774 356.614 C 184.504 340.759, 184.464 340.495, 182.250 340.180 C 180.416 339.920, 180 339.227, 180 336.430 C 180 333.031, 179.959 333, 175.500 333 C 171.367 333, 171 332.796, 171 330.500 L 171 328 154.703 328 L 138.406 328 135.953 325.042 C 133.955 322.634, 132.711 322.077, 129.250 322.042 L 125 322 125 317.659 C 125 304.641, 117.247 293.872, 105.393 290.426 L 100.186 288.912 99.401 282.706 L 98.616 276.500 97.720 282.753 C 96.914 288.380, 96.558 289.070, 94.162 289.646 C 89.705 290.718, 82.653 294.652, 79.804 297.657 C 76.071 301.592, 73.322 308.371, 72.514 315.629 L 71.832 321.759 67.199 322.281 C 64.650 322.568, 62.401 323.298, 62.199 323.902 C 61.998 324.506, 61.196 325, 60.417 325 C 59.637 325, 59 325.675, 59 326.500 C 59 327.773, 56.500 328, 42.500 328 L 26 328 26 330.500 C 26 332.796, 25.633 333, 21.500 333 C 17.041 333, 17 333.031, 17 336.430 C 17 339.227, 16.584 339.920, 14.750 340.180 C 12.536 340.495, 12.496 340.758, 12.226 356.655 L 11.951 372.809 5.976 373.503 L 0 374.196 0 383.099 L 0 392.002 567.250 391.751 L 1134.500 391.500 1134.786 382.500 L 1135.072 373.500 1120.696 373.800 L 1106.320 374.099 1105.657 348.300 C 1103.464 262.919, 1102.931 234.184, 1103.485 231.230 C 1103.896 229.038, 1104.940 227.529, 1106.554 226.793 C 1107.899 226.180, 1109 225.033, 1109 224.244 C 1109 223.455, 1110.328 220.390, 1111.951 217.433 C 1113.573 214.476, 1114.528 211.826, 1114.072 211.545 C 1113.616 211.263, 1112.511 209.489, 1111.616 207.603 C 1110.279 204.786, 1109.268 204.052, 1105.951 203.492 C 1102.431 202.897, 1102.079 202.608, 1103.207 201.242 C 1104.263 199.962, 1104.264 199.595, 1103.208 199.240 C 1102.183 198.895, 1102.170 198.501, 1103.144 197.327 C 1104.118 196.153, 1104.104 195.682, 1103.079 195.049 C 1102.125 194.459, 1102.089 194.063, 1102.943 193.535 C 1103.745 193.040, 1103.480 192.284, 1102.080 191.070 C 1100.260 189.491, 1100.052 188.047, 1099.966 176.409 C 1099.914 169.309, 1099.884 162.600, 1099.900 161.500 C 1099.916 160.400, 1099.667 154.175, 1099.349 147.666 C 1098.360 127.487, 1097.028 136.186, 1096.946 163.354 C 1096.873 187.614, 1096.753 189.247, 1094.898 191.102 C 1093.814 192.186, 1093.176 193.475, 1093.480 193.967 C 1093.784 194.459, 1093.568 195.149, 1093 195.500 C 1092.432 195.851, 1092.295 196.669, 1092.696 197.318 C 1094.455 200.163, 1093.488 202.504, 1090.121 203.556 C 1087.769 204.291, 1086.054 205.837, 1084.482 208.635 L 1082.223 212.656 1085.362 219.078 C 1087.088 222.610, 1089.316 226.108, 1090.313 226.851 C 1091.310 227.594, 1092.529 229.262, 1093.022 230.558 C 1093.550 231.946, 1093.549 246.179, 1093.019 265.207 C 1092.525 282.968, 1091.802 314.712, 1091.414 335.750 L 1090.707 374 1082.853 374 L 1075 374 1075 304.500 C 1075 258.833, 1074.657 235, 1074 235 C 1073.373 235, 1073 228.686, 1073 218.059 C 1073 207.844, 1072.603 200.873, 1072 200.500 C 1071.433 200.150, 1071 195.197, 1071 189.063 C 1071 180.667, 1070.664 177.966, 1069.500 177 C 1068.432 176.113, 1068 173.767, 1068 168.846 C 1068 163.627, 1067.633 161.796, 1066.500 161.362 C 1065.423 160.948, 1065 159.264, 1065 155.393 C 1065 152.427, 1064.550 150, 1064 150 C 1063.450 150, 1063 149.167, 1063 148.149 C 1063 147.131, 1061.814 144.093, 1060.365 141.399 C 1057.478 136.031, 1057.029 133.578, 1056.077 118 L 1055.436 107.500 1054.796 118.500 C 1054.444 124.550, 1054.118 130.536, 1054.071 131.803 C 1054.025 133.070, 1053.138 135.770, 1052.100 137.803 C 1051.063 139.836, 1050.208 141.725, 1050.200 142 C 1050.180 142.662, 1048.019 148.044, 1046.892 150.236 C 1046.402 151.191, 1046 153.949, 1046 156.364 C 1046 159.047, 1045.417 161.239, 1044.500 162 C 1043.433 162.886, 1043 165.229, 1043 170.122 C 1043 174.041, 1042.570 177, 1042 177 C 1041.392 177, 1041 181.464, 1041 188.393 C 1041 197.598, 1040.712 199.897, 1039.500 200.362 C 1038.248 200.842, 1038 203.746, 1038 217.910 C 1038 227.244, 1037.650 235.098, 1037.223 235.362 C 1036.796 235.626, 1036.458 245.552, 1036.473 257.419 L 1036.500 278.995 1021.185 278.998 L 1005.869 279 1006.078 257.526 C 1006.233 241.669, 1005.964 235.661, 1005.050 234.560 C 1004.148 233.473, 1003.898 228.673, 1004.130 216.859 C 1004.368 204.730, 1004.140 200.547, 1003.224 200.241 C 1002.354 199.951, 1002 196.531, 1002 188.417 C 1002 181.472, 1001.608 177, 1001 177 C 1000.428 177, 1000 173.990, 1000 169.969 C 1000 164.641, 999.637 162.798, 998.500 162.362 C 997.429 161.951, 997 160.278, 997 156.515 C 997 153.050, 996.486 150.818, 995.500 150 C 994.675 149.315, 994 147.685, 994 146.378 C 994 145.070, 993.550 144, 993 144 C 992.450 144, 992 143.319, 992 142.486 C 992 141.654, 991.620 140.191, 991.156 139.236 C 990.692 138.281, 989.892 136.600, 989.378 135.500 C 988.864 134.400, 988.297 127.875, 988.119 121 C 987.940 114.125, 987.615 108.313, 987.397 108.083 C 986.372 107.007, 986.096 109.502, 985.876 121.830 C 985.745 129.131, 985.270 135.333, 984.819 135.612 C 984.369 135.890, 984 136.991, 984 138.059 C 984 139.127, 983.550 140, 983 140 C 982.450 140, 982 140.873, 982 141.941 C 982 143.009, 981.550 144.160, 981 144.500 C 980.450 144.840, 980 146.179, 980 147.476 C 980 148.772, 979.532 149.989, 978.959 150.180 C 978.386 150.371, 977.748 152.984, 977.540 155.987 C 977.333 158.989, 976.676 161.608, 976.081 161.806 C 975.448 162.017, 975 164.979, 975 168.961 C 975 173.780, 974.564 176.117, 973.500 177 C 972.336 177.966, 972 180.667, 972 189.063 C 972 195.197, 971.567 200.150, 971 200.500 C 970.397 200.873, 970 207.844, 970 218.059 C 970 229.478, 969.649 235, 968.925 235 C 968.333 235, 967.931 236.237, 968.031 237.750 C 968.130 239.262, 968.164 270.538, 968.106 307.250 L 968 374 962.731 374 L 957.461 374 955.246 360.250 C 954.028 352.688, 952.372 343.980, 951.567 340.899 C 950.300 336.053, 950.289 334.032, 951.483 325.899 C 955.409 299.145, 956.623 257.483, 954.116 235.500 C 952.809 224.041, 950.101 206.768, 949.520 206.187 C 949.171 205.837, 929.631 219.265, 924.635 223.288 L 921.770 225.595 924.050 243.963 C 926.293 262.029, 926.303 262.564, 924.650 276.416 C 922.117 297.641, 921.637 312.750, 922.918 331 C 923.971 346.014, 926.079 364.243, 927.573 371.250 C 928.145 373.935, 928.051 374, 923.579 374 L 919 374 919 365 L 919 356 916 356 L 913 356 913 303.930 L 913 251.861 904.750 241.479 C 900.212 235.769, 896.163 231.075, 895.750 231.048 C 895.337 231.022, 895 235.698, 895 241.441 C 895 247.323, 894.563 252.152, 894 252.500 C 893.450 252.840, 893 254.216, 893 255.559 C 893 257.055, 892.423 258, 891.510 258 C 890.213 258, 889.985 264.336, 889.760 306.731 L 889.500 355.462 887 355.481 C 884.661 355.499, 884.481 355.869, 884.200 361.250 C 883.921 366.604, 883.731 367, 881.450 367 L 879 367 879 316 C 879 282.667, 878.654 265, 878 265 C 877.404 265, 877 261.167, 877 255.500 C 877 249.833, 877.404 246, 878 246 C 878.606 246, 879 241.667, 879 235 C 879 225.750, 878.754 224, 877.456 224 C 876.607 224, 876.013 223.438, 876.135 222.750 C 876.704 219.557, 874.655 188, 873.879 188 C 873.395 188, 873 193.891, 873 201.092 L 873 214.183 861.507 226.842 L 850.015 239.500 850.007 299.250 L 850 359 847 359 L 844 359 844 339.906 C 844 321.654, 843.912 320.790, 842 320.290 C 840.072 319.786, 840 318.926, 840 296.383 C 840 273.667, 839.943 273, 838 273 C 836.047 273, 836 272.333, 836 244.500 L 836 216 833.500 216 L 831 216 831 183 C 831 154.783, 830.789 150, 829.545 150 C 828.347 150, 827.997 146.943, 827.567 132.750 C 826.693 103.868, 825.925 91.546, 824.940 90.550 C 824.423 90.027, 824 84.092, 824 77.359 C 824 70.277, 823.579 64.858, 823 64.500 C 822.450 64.160, 822.008 61.096, 822.017 57.691 C 822.053 44.553, 819.595 1, 818.818 1 C 818.368 1, 818 7.210, 818 14.800 M 208.286 218.500 C 208.294 221.250, 208.488 222.256, 208.718 220.736 C 208.947 219.216, 208.941 216.966, 208.704 215.736 C 208.467 214.506, 208.279 215.750, 208.286 218.500 M 211.286 218.500 C 211.294 221.250, 211.488 222.256, 211.718 220.736 C 211.947 219.216, 211.941 216.966, 211.704 215.736 C 211.467 214.506, 211.279 215.750, 211.286 218.500 M 213.272 218 C 213.272 220.475, 213.467 221.488, 213.706 220.250 C 213.944 219.012, 213.944 216.988, 213.706 215.750 C 213.467 214.512, 213.272 215.525, 213.272 218 M 216.272 218 C 216.272 220.475, 216.467 221.488, 216.706 220.250 C 216.944 219.012, 216.944 216.988, 216.706 215.750 C 216.467 214.512, 216.272 215.525, 216.272 218 M 604.435 231.390 C 604.746 234.079, 605 240.266, 605 245.140 L 605 254 614.042 254 L 623.084 254 620.353 249.250 C 616.317 242.232, 610.596 233.971, 607.021 230 L 603.870 226.500 604.435 231.390 M 207.070 249.750 C 207.119 254.448, 207.402 255.892, 208 254.500 C 209.207 251.691, 209.207 243, 208 243 C 207.425 243, 207.030 245.870, 207.070 249.750 M 212.328 249.500 C 212.333 253.350, 212.513 254.802, 212.730 252.728 C 212.946 250.653, 212.943 247.503, 212.722 245.728 C 212.501 243.952, 212.324 245.650, 212.328 249.500 M 217.328 249.500 C 217.333 253.350, 217.513 254.802, 217.730 252.728 C 217.946 250.653, 217.943 247.503, 217.722 245.728 C 217.501 243.952, 217.324 245.650, 217.328 249.500 M 606 260.464 C 606 261.744, 607.681 262, 616.083 262 C 623.704 262, 626.065 261.695, 625.752 260.750 C 625.468 259.892, 622.302 259.410, 615.669 259.214 C 607.515 258.972, 606 259.168, 606 260.464 M 716.500 266.685 C 708.792 267.356, 707.845 267.823, 708.187 270.785 L 708.500 273.500 721.500 273.580 C 736.067 273.669, 743.516 275.213, 753.360 280.182 C 764.345 285.727, 774.559 297.560, 776.508 307 C 777.454 311.582, 778.696 313, 781.762 313 C 784.191 313, 784.258 312.827, 783.692 308.050 C 781.270 287.594, 758.709 270.280, 730.223 267.016 C 725.425 266.466, 721.275 266.088, 721 266.176 C 720.725 266.264, 718.700 266.493, 716.500 266.685 M 606 268.500 C 606 269.750, 607.997 270, 617.969 270 C 628.197 270, 629.854 269.782, 629.362 268.500 C 628.897 267.288, 626.598 267, 617.393 267 C 607.933 267, 606 267.254, 606 268.500 M 698.447 270.403 C 682.905 275.271, 668.273 288.471, 663.536 301.899 C 661.743 306.981, 662.076 307.899, 665.480 307.249 C 667.348 306.892, 668.856 305.171, 671.254 300.661 C 677.008 289.839, 689.051 280.262, 702.179 276.067 C 705.705 274.941, 705.816 274.769, 704.831 271.946 C 703.674 268.626, 703.927 268.687, 698.447 270.403 M 206.360 283 C 206.360 288.225, 206.529 290.363, 206.735 287.750 C 206.941 285.137, 206.941 280.863, 206.735 278.250 C 206.529 275.637, 206.360 277.775, 206.360 283 M 212.360 283 C 212.360 288.225, 212.529 290.363, 212.735 287.750 C 212.941 285.137, 212.941 280.863, 212.735 278.250 C 212.529 275.637, 212.360 277.775, 212.360 283 M 218.360 283 C 218.360 288.225, 218.529 290.363, 218.735 287.750 C 218.941 285.137, 218.941 280.863, 218.735 278.250 C 218.529 275.637, 218.360 277.775, 218.360 283 M 606 276.500 C 606 277.759, 608.163 278, 619.469 278 C 631.030 278, 632.856 277.788, 632.362 276.500 C 631.891 275.274, 629.431 275, 618.893 275 C 608.099 275, 606 275.244, 606 276.500 M 606.184 283.722 C 606.489 285.311, 608.043 285.529, 620.841 285.778 C 634.105 286.035, 635.132 285.925, 634.816 284.278 C 634.511 282.689, 632.957 282.471, 620.159 282.222 C 606.895 281.965, 605.868 282.075, 606.184 283.722 M 1006.015 299.750 L 1006.030 312.500 1012.515 300.240 C 1016.082 293.497, 1019 287.759, 1019 287.490 C 1019 287.220, 1016.075 287, 1012.500 287 L 1006 287 1006.015 299.750 M 1025.855 292.250 C 1027.435 295.137, 1030.405 300.571, 1032.455 304.326 C 1034.505 308.080, 1036.318 311.005, 1036.483 310.826 C 1036.648 310.646, 1036.544 305.212, 1036.252 298.750 L 1035.721 287 1029.352 287 L 1022.983 287 1025.855 292.250 M 1019.794 291.219 C 1018.981 292.473, 1015.545 298.717, 1012.158 305.094 L 1006 316.688 1006 345.344 L 1006 374 1021 374 L 1036 374 1036.118 345.750 C 1036.184 330.212, 1036.168 316.954, 1036.083 316.286 C 1035.939 315.149, 1022.719 290.386, 1021.727 289.393 C 1021.476 289.143, 1020.606 289.964, 1019.794 291.219 M 606.692 290.641 C 604.738 292.595, 607.294 293, 621.583 293 C 633.605 293, 637.072 292.714, 636.751 291.750 C 636.450 290.844, 632.350 290.424, 621.860 290.224 C 613.899 290.073, 607.073 290.260, 606.692 290.641 M 91.136 293.063 C 87.212 295.450, 83.416 303.159, 82.427 310.750 L 81.742 316 86.246 316 C 90.490 316, 90.786 315.820, 91.375 312.875 C 91.719 311.156, 92 307.853, 92 305.534 C 92 303.215, 92.658 299.130, 93.463 296.456 C 94.268 293.781, 94.810 291.476, 94.667 291.334 C 94.524 291.191, 92.935 291.969, 91.136 293.063 M 96.161 293.545 C 94.849 296.424, 92.781 313.837, 93.595 315.154 C 93.874 315.606, 96.379 315.869, 99.161 315.738 L 104.219 315.500 103.557 307.251 C 102.465 293.631, 99.026 287.258, 96.161 293.545 M 102.469 292.649 C 103.849 296.005, 104.848 301.200, 105.546 308.652 L 106.235 316 110.617 316 C 114.920 316, 115 315.939, 115 312.659 C 115 304.543, 110.312 295.247, 104.775 292.384 C 101.862 290.877, 101.747 290.891, 102.469 292.649 M 112.521 298.606 C 114.884 302.529, 116.135 306.069, 116.595 310.134 C 117.022 313.912, 117.717 316, 118.547 316 C 119.256 316, 120.548 316.273, 121.418 316.607 C 122.624 317.070, 123 316.562, 123 314.473 C 123 307.529, 118.568 299.677, 112.016 295.011 L 109.112 292.943 112.521 298.606 M 81.540 298.407 C 78.478 301.469, 76.654 304.425, 75.566 308.089 C 73.410 315.350, 73.523 316, 76.939 316 C 79.679 316, 79.925 315.680, 80.581 311.250 C 81.563 304.618, 83.690 298.959, 86.208 296.278 C 90.183 292.047, 85.986 293.962, 81.540 298.407 M 607 299.475 C 607 300.779, 609.335 301, 623.083 301 C 635.505 301, 639.072 300.715, 638.751 299.750 C 638.448 298.837, 634.112 298.426, 622.668 298.225 C 609.171 297.987, 607 298.161, 607 299.475 M 607 307.500 C 607 308.773, 609.500 309, 623.500 309 C 637.500 309, 640 308.773, 640 307.500 C 640 306.227, 637.500 306, 623.500 306 C 609.500 306, 607 306.227, 607 307.500 M 663.608 312.496 C 662.007 313.708, 661.797 314.828, 662.246 319.777 C 663.193 330.219, 671.690 342.804, 681.791 348.723 C 685.615 350.964, 686.330 351.099, 687.612 349.817 C 689.679 347.749, 688.638 345.897, 682.982 341.585 C 674.352 335.003, 668 323.075, 668 313.451 C 668 310.702, 666.428 310.361, 663.608 312.496 M 607.515 313.976 C 605.953 316.502, 608.770 317, 624.632 317 C 639.822 317, 641.120 316.860, 640.811 315.250 C 640.510 313.683, 638.783 313.471, 624.311 313.226 C 614.061 313.052, 607.917 313.326, 607.515 313.976 M 204.405 330.500 C 204.406 339.300, 204.559 342.766, 204.745 338.203 C 204.930 333.639, 204.929 326.439, 204.742 322.203 C 204.555 317.966, 204.404 321.700, 204.405 330.500 M 212.407 331 C 212.407 340.075, 212.559 343.788, 212.744 339.250 C 212.929 334.712, 212.929 327.288, 212.744 322.750 C 212.559 318.212, 212.407 321.925, 212.407 331 M 220.407 331 C 220.407 340.075, 220.559 343.788, 220.744 339.250 C 220.929 334.712, 220.929 327.288, 220.744 322.750 C 220.559 318.212, 220.407 321.925, 220.407 331 M 359.573 318.248 C 359.139 319.759, 359.137 321.784, 359.568 322.748 C 360.256 324.286, 360.400 324.226, 360.745 322.250 C 360.962 321.012, 360.964 318.988, 360.750 317.750 C 360.384 315.634, 360.314 315.663, 359.573 318.248 M 777.466 318.687 C 775.630 327.231, 773.564 330.649, 765.358 338.717 C 757.181 346.755, 755.569 349.514, 758.410 350.604 C 762.494 352.171, 775.897 340.050, 780.486 330.638 C 782.129 327.269, 783.377 323.017, 783.422 320.638 C 783.493 316.857, 783.266 316.473, 780.785 316.187 C 778.511 315.925, 777.972 316.331, 777.466 318.687 M 287.232 320 C 287.232 321.925, 287.438 322.712, 287.689 321.750 C 287.941 320.788, 287.941 319.212, 287.689 318.250 C 287.438 317.288, 287.232 318.075, 287.232 320 M 290.710 321 C 290.423 322.100, 290.595 323, 291.094 323 C 291.592 323, 292 322.100, 292 321 C 292 319.900, 291.827 319, 291.617 319 C 291.406 319, 290.998 319.900, 290.710 321 M 295 320.917 C 295 322.145, 295.646 323, 296.573 323 C 297.505 323, 298.015 322.320, 297.823 321.333 C 297.337 318.824, 295 318.480, 295 320.917 M 300 321 C 300 322.100, 300.450 323, 301 323 C 301.550 323, 302 322.100, 302 321 C 302 319.900, 301.550 319, 301 319 C 300.450 319, 300 319.900, 300 321 M 346 320.941 C 346 323.356, 346.556 323.599, 347.349 321.532 C 347.659 320.725, 347.482 319.798, 346.956 319.473 C 346.430 319.148, 346 319.809, 346 320.941 M 350 321 C 350 322.111, 350.667 323, 351.500 323 C 352.333 323, 353 322.111, 353 321 C 353 319.889, 352.333 319, 351.500 319 C 350.667 319, 350 319.889, 350 321 M 355.510 319.984 C 354.773 321.177, 355.709 323, 357.059 323 C 358.276 323, 358.284 320.293, 357.069 319.543 C 356.557 319.226, 355.856 319.425, 355.510 319.984 M 607.667 321.667 C 605.721 323.612, 608.517 324, 624.500 324 C 639.389 324, 642 323.776, 642 322.500 C 642 321.226, 639.463 321, 625.167 321 C 615.908 321, 608.033 321.300, 607.667 321.667 M 451.216 323.505 C 445.894 325.818, 445.302 328.625, 445.078 352.622 L 444.879 374 455.439 374 L 466 374 466.095 366.750 C 466.147 362.762, 466.374 354.015, 466.598 347.311 C 466.851 339.758, 466.623 334.885, 466 334.500 C 465.446 334.157, 465.273 332.762, 465.615 331.398 C 466.367 328.402, 463.954 325.339, 459.282 323.362 C 455.393 321.716, 455.332 321.717, 451.216 323.505 M 608 330.500 C 608 331.775, 610.556 332, 625 332 C 639.444 332, 642 331.775, 642 330.500 C 642 329.225, 639.444 329, 625 329 C 610.556 329, 608 329.225, 608 330.500 M 320.411 331.891 C 313.759 335.947, 313 337.970, 313 351.635 L 313 364 324 364 L 335 364 335 351.577 C 335 339.634, 334.899 339.033, 332.381 336.041 C 330.268 333.530, 325.230 329.986, 323.800 330.004 C 323.635 330.006, 322.110 330.855, 320.411 331.891 M 278.035 333.934 C 277.466 334.998, 277 338.117, 277 340.866 C 277 345.721, 277.078 345.855, 279.750 345.575 C 282.259 345.312, 282.527 344.882, 282.803 340.677 C 283.265 333.657, 280.373 329.566, 278.035 333.934 M 291.750 333.080 C 290.396 333.869, 290 335.435, 290 340.003 L 290 345.907 294.493 345.703 L 298.986 345.500 298.993 339.950 C 299.002 332.631, 296.536 330.292, 291.750 333.080 M 349.462 334.418 C 348.462 335.945, 347.992 338.434, 348.189 341.168 L 348.500 345.500 353.250 345.805 L 358 346.110 358 340.710 C 358 336.749, 357.513 334.869, 356.171 333.655 C 353.606 331.333, 351.312 331.594, 349.462 334.418 M 366.200 333.200 C 365.540 333.860, 365 337.010, 365 340.200 C 365 345.978, 365.011 346, 368 346 C 370.939 346, 371 345.896, 371 340.934 C 371 336.018, 369.725 332, 368.165 332 C 367.744 332, 366.860 332.540, 366.200 333.200 M 608 338.500 C 608 339.774, 610.544 340, 624.893 340 C 638.987 340, 641.881 339.751, 642.362 338.500 C 642.860 337.202, 640.585 337, 625.469 337 C 610.608 337, 608 337.224, 608 338.500 M 95.309 342.958 C 89.604 346.428, 89 348.224, 89 361.723 L 89 374 99.103 374 L 109.206 374 108.826 361.750 C 108.404 348.133, 107.752 346.353, 101.999 343.119 C 98.449 341.124, 98.330 341.121, 95.309 342.958 M 608.500 345 C 606.956 347.498, 609.808 348, 625.559 348 C 641.333 348, 642 347.919, 642 346 C 642 344.081, 641.333 344, 625.559 344 C 615.677 344, 608.871 344.399, 608.500 345 M 538.299 349.250 C 534.812 353.078, 534.236 355.193, 534.075 364.750 L 533.920 374 543.460 374 L 553 374 552.956 367.250 C 552.932 363.538, 552.525 358.488, 552.050 356.029 C 550.513 348.060, 542.832 344.274, 538.299 349.250 M 19.619 348.808 C 19.374 349.204, 18.848 354.809, 18.451 361.264 L 17.728 373 20.981 373 C 23.866 373, 24.165 372.746, 23.630 370.750 C 23.299 369.512, 23.021 364.161, 23.014 358.857 C 23.003 351.310, 22.681 349.092, 21.532 348.651 C 20.725 348.341, 19.864 348.412, 19.619 348.808 M 175.237 349.163 C 174.400 350, 174 354.058, 174 361.700 L 174 373 176.500 373 L 179 373 179 362.191 C 179 350.849, 177.779 346.621, 175.237 349.163 M 292.204 351.570 C 290.391 352.840, 290 354.079, 290 358.557 L 290 364 294.550 364 L 299.100 364 298.800 358.366 C 298.568 354.006, 298.037 352.427, 296.454 351.380 C 294.712 350.228, 294.079 350.256, 292.204 351.570 M 351.500 351.222 C 348.534 352.864, 348.032 354.019, 348.015 359.250 L 348 364 353.050 364 L 358.100 364 357.800 358.366 C 357.454 351.860, 355.123 349.217, 351.500 351.222 M 277.667 351.667 C 277.300 352.033, 277 354.958, 277 358.167 C 277 363.981, 277.010 364, 280 364 C 282.956 364, 283 363.922, 283 358.700 C 283 353.573, 281.820 351, 279.467 351 C 278.843 351, 278.033 351.300, 277.667 351.667 M 365.607 352.582 C 365.273 353.452, 365 356.377, 365 359.082 C 365 363.880, 365.073 364, 368 364 C 370.927 364, 371 363.880, 371 359.082 C 371 352.943, 370.279 351, 368 351 C 367.018 351, 365.941 351.712, 365.607 352.582 M 609 353.500 C 609 354.773, 611.500 355, 625.500 355 C 639.500 355, 642 354.773, 642 353.500 C 642 352.227, 639.500 352, 625.500 352 C 611.500 352, 609 352.227, 609 353.500 M 754 357.813 C 754 358.516, 752.471 359.004, 750.250 359.011 C 735.997 359.053, 735.304 362.792, 749.406 363.565 C 754.609 363.851, 756.844 364.444, 758.470 365.972 C 761.452 368.774, 762.020 368.514, 760.680 364.964 C 759.443 361.687, 754 355.860, 754 357.813 M 687.306 360.250 C 685.162 362.611, 683.391 368, 684.759 368 C 685.197 368, 686.326 367.100, 687.268 366 C 688.959 364.025, 690.056 363.801, 699.112 363.584 C 703.239 363.485, 707.004 361.834, 706.997 360.128 C 706.996 359.782, 703.622 359.500, 699.499 359.500 C 695.377 359.500, 692.003 359.163, 692.002 358.750 C 691.998 357.209, 689.278 358.078, 687.306 360.250 M 609 361.500 C 609 362.771, 611.444 363, 625 363 C 638.556 363, 641 362.771, 641 361.500 C 641 360.229, 638.556 360, 625 360 C 611.444 360, 609 360.229, 609 361.500 M 571.176 365.224 C 570.529 365.871, 570 368.110, 570 370.200 C 570 373.603, 570.266 374, 572.541 374 C 574.881 374, 575.062 373.683, 574.843 369.958 C 574.575 365.423, 573.005 363.395, 571.176 365.224 M 512.667 365.667 C 512.300 366.033, 512 368.058, 512 370.167 C 512 373.589, 512.268 374, 514.500 374 C 516.430 374, 516.997 373.487, 516.986 371.750 C 516.954 366.407, 514.866 363.467, 512.667 365.667 M 29 370 C 29 372, 29.500 373, 30.500 373 C 31.500 373, 32 372, 32 370 C 32 368, 31.500 367, 30.500 367 C 29.500 367, 29 368, 29 370 M 34 369.917 C 34 372.049, 34.483 373, 35.566 373 C 36.677 373, 37.041 372.221, 36.816 370.327 C 36.356 366.434, 34 366.091, 34 369.917 M 39 370 C 39 371.650, 39.450 373, 40 373 C 40.550 373, 41 371.650, 41 370 C 41 368.350, 40.550 367, 40 367 C 39.450 367, 39 368.350, 39 370 M 43 370 C 43 372, 43.500 373, 44.500 373 C 45.500 373, 46 372, 46 370 C 46 368, 45.500 367, 44.500 367 C 43.500 367, 43 368, 43 370 M 48 370 C 48 372, 48.500 373, 49.500 373 C 50.500 373, 51 372, 51 370 C 51 368, 50.500 367, 49.500 367 C 48.500 367, 48 368, 48 370 M 53 370 C 53 372.089, 53.425 373.025, 54.250 372.750 C 54.938 372.521, 55.500 371.283, 55.500 370 C 55.500 368.717, 54.938 367.479, 54.250 367.250 C 53.425 366.975, 53 367.911, 53 370 M 58 370 C 58 371.650, 58.450 373, 59 373 C 59.550 373, 60 371.650, 60 370 C 60 368.350, 59.550 367, 59 367 C 58.450 367, 58 368.350, 58 370 M 62.667 367.667 C 61.358 368.976, 61.986 373, 63.500 373 C 64.500 373, 65 372, 65 370 C 65 367.133, 64.100 366.233, 62.667 367.667 M 67 370 C 67 372, 67.500 373, 68.500 373 C 69.500 373, 70 372, 70 370 C 70 368, 69.500 367, 68.500 367 C 67.500 367, 67 368, 67 370 M 72 370 C 72 372.089, 72.425 373.025, 73.250 372.750 C 73.938 372.521, 74.500 371.283, 74.500 370 C 74.500 368.717, 73.938 367.479, 73.250 367.250 C 72.425 366.975, 72 367.911, 72 370 M 123 370 C 123 372, 123.500 373, 124.500 373 C 125.500 373, 126 372, 126 370 C 126 368, 125.500 367, 124.500 367 C 123.500 367, 123 368, 123 370 M 128 370 C 128 371.650, 128.450 373, 129 373 C 129.550 373, 130 371.650, 130 370 C 130 368.350, 129.550 367, 129 367 C 128.450 367, 128 368.350, 128 370 M 133 370 C 133 371.650, 133.450 373, 134 373 C 134.550 373, 135 371.650, 135 370 C 135 368.350, 134.550 367, 134 367 C 133.450 367, 133 368.350, 133 370 M 137 370 C 137 372, 137.500 373, 138.500 373 C 139.500 373, 140 372, 140 370 C 140 368, 139.500 367, 138.500 367 C 137.500 367, 137 368, 137 370 M 142 370 C 142 372.089, 142.425 373.025, 143.250 372.750 C 143.938 372.521, 144.500 371.283, 144.500 370 C 144.500 368.717, 143.938 367.479, 143.250 367.250 C 142.425 366.975, 142 367.911, 142 370 M 147 370 C 147 371.650, 147.450 373, 148 373 C 148.550 373, 149 371.650, 149 370 C 149 368.350, 148.550 367, 148 367 C 147.450 367, 147 368.350, 147 370 M 151.362 368.500 C 150.646 370.364, 151.588 373, 152.969 373 C 153.536 373, 154 371.650, 154 370 C 154 366.860, 152.351 365.922, 151.362 368.500 M 156 370 C 156 372, 156.500 373, 157.500 373 C 158.500 373, 159 372, 159 370 C 159 368, 158.500 367, 157.500 367 C 156.500 367, 156 368, 156 370 M 161 370 C 161 372.076, 161.427 373.024, 162.241 372.753 C 163.860 372.213, 163.868 367.795, 162.250 367.253 C 161.425 366.976, 161 367.910, 161 370 M 166 370 C 166 371.650, 166.450 373, 167 373 C 167.550 373, 168 371.650, 168 370 C 168 368.350, 167.550 367, 167 367 C 166.450 367, 166 368.350, 166 370 M 609.250 369.250 C 609.558 370.175, 613.522 370.500, 624.500 370.500 C 635.478 370.500, 639.442 370.175, 639.750 369.250 C 640.072 368.285, 636.589 368, 624.500 368 C 612.411 368, 608.928 368.285, 609.250 369.250 M 0.360 383 C 0.360 388.225, 0.529 390.363, 0.735 387.750 C 0.941 385.137, 0.941 380.863, 0.735 378.250 C 0.529 375.637, 0.360 377.775, 0.360 383" stroke="none" fill="#000000" fill-rule="evenodd"/>
</svg>
