<svg xmlns="http://www.w3.org/2000/svg" width="3925" height="646" version="1.2">
  <path d="M36 350c20 0 47 0 86 4C54 460 1 560 1 604c0 10 3 28 27 42 40-95 89-196 139-288 33 4 71 8 118 16-8 44-13 84-13 119 0 65 18 107 62 107 53 0 107-60 139-146l-8-8c-42 81-77 119-105 119-22 0-30-23-30-64 0-140 93-450 125-475-16-16-31-26-42-26s-23 7-39 22c-49 47-144 169-225 292-21-4-40-6-58-6-41 0-72 11-83 42zM387 50c-33 74-73 190-96 296l-103-25C262 188 337 81 387 50zm298 274 1-11c0-17-13-25-35-25-99 0-215 156-215 245 0 47 33 67 60 67 49 0 111-63 163-149-10 37-15 67-15 86 0 28 13 60 53 60 54 0 124-61 155-143l-10-8c-33 73-90 119-123 119-18 0-18-15-18-45 0-158 184-451 184-502 0-10-8-18-16-18-44 0-116 187-176 342-51 133-129 220-172 220-18 0-29-15-29-39 0-61 76-211 162-211 15 0 25 4 31 12zm368 82c-40 58-119 175-168 175-15 0-22-10-22-31 0-78 90-227 165-227 29 0 39 21 39 45 0 9-2 19-4 28 23 0 39-8 39-34 0-36-31-60-73-60-104 0-221 150-221 245 0 45 25 67 59 67 39 0 74-32 121-93l-3 23c0 28 19 56 58 56 57 0 125-59 158-146l-8-8c-48 85-99 127-128 127-19 0-27-19-27-35 0-39 47-93 47-112 0-12-23-18-32-20zm332 188c10-22 21-49 38-75 50-76 79-119 105-119 12 0 23 8 23 29 0 31-24 74-24 113 0 32 16 59 54 59 64 0 113-76 138-143l-9-12c-25 55-64 127-108 127-18 0-24-13-24-27 0-34 30-92 30-134 0-27-12-51-46-51-54 0-99 62-132 123 8-22 24-72 24-113 0-33-10-61-43-61-57 0-125 84-169 152 12-40 21-76 21-91 0-13-7-21-21-21-16 0-31 10-37 17-1 71-55 202-55 214 0 8 28 17 43 17 39-108 135-235 181-235 15 0 20 12 20 31 0 56-50 169-50 184 0 11 28 16 41 16zM2403 0c-23 0-38 30-44 42-14 30-49 137-80 240a1371 1371 0 0 0-183-6l63-203c3-11 6-23 6-35 0-19-8-38-37-38-60 0-160 82-160 154 0 26 13 46 48 46-2-7-4-18-4-27 0-53 47-151 99-151 10 0 12 4 12 12 0 16-8 35-12 47l-68 201c-39 8-65 22-66 48l53-5c-57 174-75 247-88 321 17 0 44-15 55-52 6-21 46-150 86-274 47-4 88-5 186-6-18 60-34 116-42 148-13 50-20 93-20 121 0 41 14 59 56 63l-2-29c0-39 7-103 26-194l25-109c21 0 43-1 67-26l-60-3c28-109 62-226 84-285zm174 359c-30 60-96 209-145 209-27 0-29-40-29-54 0-53 36-133 54-160-9-10-24-16-30-16-24 0-70 120-70 181 0 43 24 81 60 81 40 0 75-46 104-99-3 13-5 27-5 40 0 33 13 59 56 59 57 0 126-60 161-146l-11-8c-39 83-100 130-133 130-20 0-27-13-27-32 0-54 54-155 54-164 0-14-30-19-39-21zm115 153c0 48 24 105 100 105 45 0 85-21 102-67 48-7 92-36 112-95l-7-8c-31 60-64 84-101 91 3-12 5-25 5-40 0-73-42-140-42-192 0-19 5-30 5-36 0-5-4-10-13-10-15 0-31 15-31 54v10c-20 42-47 81-79 116-9 10-51 9-51 72zm159-13c0 16-2 27-3 38-49-11-84-44-100-79 24-24 53-63 78-104 8 44 25 95 25 145zm-58 90c-41 0-65-39-65-78 0-17 4-27 17-28 17 27 54 58 99 67-12 35-38 39-51 39zm416-183c-40 58-119 175-168 175-15 0-22-10-22-31 0-78 90-227 165-227 29 0 39 21 39 45 0 9-2 19-4 28 23 0 39-8 39-34 0-36-31-60-73-60-104 0-221 150-221 245 0 45 25 67 59 67 39 0 74-32 121-93l-3 23c0 28 19 56 58 56 57 0 125-59 158-146l-8-8c-48 85-99 127-128 127-19 0-27-19-27-35 0-39 47-93 47-112 0-12-23-18-32-20zm236-101c-55 0-115 164-115 225 0 37 20 67 61 67 63 0 127-51 158-143l-7-8c-46 92-88 123-124 123-26 0-39-10-39-48 0-75 83-172 83-199 0-11-8-17-17-17zm42-75c26 0 52-23 52-43 0-18-10-25-26-25-26 0-59 20-59 42 0 18 16 26 33 26zm10 340c9 12 26 18 43 18 41-70 115-198 181-198 19 0 32 10 32 40 0 37-23 78-23 111 0 29 18 51 56 51 60 0 105-57 138-135l-8-11c-30 60-72 125-112 125-14 0-24-8-24-30 0-39 32-77 32-127 0-36-17-72-59-72-61 0-124 76-166 141 14-44 25-89 25-105 0-13-7-21-21-21-15 0-31 9-37 17-1 69-57 187-57 196z" style="fill:#fff"/>
</svg>
