<svg xmlns="http://www.w3.org/2000/svg" viewBox="0 0 512 512">
  <!-- Background circle -->
  <circle cx="256" cy="256" r="240" fill="#000814"/>

  <!-- Letters container: original combined width ~930, height ~646 -->
  <!-- Scale: 400/930 = 0.43, centered in 512x512 with padding -->
  <g transform="translate(56, 117) scale(0.43)">
    <!-- Letter A (x: 0-470) -->
    <path
      d="m35.8 349.6c20 0 47.2 0.8 86.4 4-68 106.4-121.6 206.4-121.6 250.4 0 10.4 3.2 28 27.2 41.6 40-94.4 88.8-195.2 139.2-288 32.8 4 71.2 8.8 118.4 16-8.8 44-13.6 84.8-13.6 119.2 0 64.8 18.4 107.2 62.4 107.2 52.8 0 106.4-60 138.4-145.6l-8-8c-41.6 80.8-76.8 118.4-104.8 118.4-21.6 0-29.6-23.2-29.6-64 0-140 92.8-449.6 124.8-475.2-16-16-31.2-25.6-42.4-25.6-10.4 0-22.4 7.2-38.4 22.4-49.6 46.4-144 168.8-225.6 291.2-20.8-3.2-40-5.6-57.6-5.6-40.8 0-72 11.2-83.2 41.6zm351.2-299.2c-32.8 73.6-72.8 189.6-96 295.2-30.4-7.2-67.2-16.8-103.2-24.8 74.4-132.8 149.6-240 199.2-270.4z"
      fill="#fca311"
    />

    <!-- Letter H (translated from x:2128-2470 to x:590-930, so translate by -1538) -->
    <path
      d="M2403.4 0c-23.2 0-38.4 29.6-44 41.6-14.4 30.4-49.6 137.6-80.8 240-40.8-4-85.6-7.2-136-7.2-16 0-32 0.8-46.4 1.6l62.4-203.2c3.2-10.4 6.4-22.4 6.4-34.4 0-19.2-8-38.4-36.8-38.4-60 0-160 81.6-160 154.4 0 25.6 12.8 45.6 48 45.6-2.4-7.2-4-17.6-4-27.2 0-52.8 47.2-150.4 99.2-150.4 9.6 0 11.2 3.2 11.2 11.2 0 16-7.2 35.2-11.2 47.2-27.2 78.4-49.6 144.8-68 200.8-39.2 8-65.6 22.4-66.4 48.8l52.8-5.6c-56.8 174.4-75.2 247.2-88 320.8 16.8 0 44-14.4 55.2-51.2 6.4-21.6 46.4-150.4 85.6-274.4 47.2-4 88.8-4.8 186.4-5.6-18.4 60-34.4 116-42.4 148-12.8 49.6-19.2 92.8-19.2 120.8 0 40.8 13.6 58.4 55.2 62.4-0.8-7.2-1.6-16-1.6-28.8 0-39.2 7.2-102.4 26.4-193.6 6.4-32.8 15.2-70.4 24.8-109.6 20.8 0 43.2-0.8 67.2-25.6-19.2 0-39.2-2.4-60-3.2 28-108.8 61.6-225.6 84-284.8z"
      fill="#fca311"
      transform="translate(-1538, 0)"
    />
  </g>
</svg>
